<svg width="65" height="64" viewBox="0 0 65 64" fill="none" xmlns="http://www.w3.org/2000/svg">
<rect x="1.56667" y="1.06667" width="61.8667" height="61.8667" rx="30.9333" stroke="#0C1C2C" stroke-width="2.13333"/>
<rect x="1.56667" y="1.06667" width="61.8667" height="61.8667" rx="30.9333" stroke="#0C1C2C" stroke-width="2.13333"/>
<rect x="1.56667" y="1.06667" width="61.8667" height="61.8667" rx="30.9333" stroke="#0C1C2C" stroke-width="2.13333"/>
<path fill-rule="evenodd" clip-rule="evenodd" d="M32.5 16.0566C31.5047 16.0566 30.5268 16.2489 29.5838 16.6331L19.8565 20.6134C19.0184 20.9626 18.2503 22.098 18.25 23.006V30.6733C18.2503 38.6884 24.0126 46.0926 31.9577 48.2931C32.3068 48.3978 32.6915 48.3977 33.0406 48.2931C40.986 46.0928 46.7497 38.6886 46.75 30.6733V23.006C46.7497 22.0981 45.9815 20.9627 45.1435 20.6134L35.4162 16.6331C34.4733 16.2489 33.4953 16.0567 32.5 16.0566Z" fill="black"/>
</svg>
