<svg width="65" height="64" viewBox="0 0 65 64" fill="none" xmlns="http://www.w3.org/2000/svg">
<rect x="1.56667" y="1.06667" width="61.8667" height="61.8667" rx="30.9333" stroke="#0C1C2C" stroke-width="2.13333"/>
<rect x="1.56667" y="1.06667" width="61.8667" height="61.8667" rx="30.9333" stroke="#0C1C2C" stroke-width="2.13333"/>
<rect x="1.56667" y="1.06667" width="61.8667" height="61.8667" rx="30.9333" stroke="#0C1C2C" stroke-width="2.13333"/>
<rect x="1.56667" y="1.06667" width="61.8667" height="61.8667" rx="30.9333" stroke="#0C1C2C" stroke-width="2.13333"/>
<rect x="1.56667" y="1.06667" width="61.8667" height="61.8667" rx="30.9333" stroke="#0C1C2C" stroke-width="2.13333"/>
<path fill-rule="evenodd" clip-rule="evenodd" d="M27.6563 17.883C27.3526 18.7942 26.6593 19.5106 25.8201 19.9778C25.6896 20.0505 25.5604 20.1252 25.4325 20.202C24.608 20.697 23.6399 20.94 22.6978 20.7472L20.6948 20.3373C19.2892 20.0497 17.8572 20.6938 17.1398 21.9363L16.1048 23.7289C15.3874 24.9715 15.5456 26.5337 16.4976 27.6072L17.8559 29.139C18.4925 29.8568 18.7676 30.8141 18.7524 31.7734C18.75 31.924 18.75 32.0747 18.7524 32.2252C18.7676 33.1845 18.4925 34.1417 17.8559 34.8596L16.4976 36.3914C15.5456 37.4649 15.3874 39.0271 16.1048 40.2696L17.1398 42.0623C17.8572 43.3048 19.2892 43.9489 20.6948 43.6613L22.6976 43.2514C23.6398 43.0586 24.6079 43.3016 25.4324 43.7966C25.5603 43.8734 25.6895 43.9482 25.8201 44.0209C26.6593 44.4881 27.3526 45.2045 27.6563 46.1157L28.3022 48.0534C28.756 49.4146 30.0297 50.3327 31.4645 50.3327H33.5345C34.9692 50.3327 36.243 49.4146 36.6967 48.0534L37.3427 46.1157C37.6464 45.2045 38.3397 44.4881 39.1789 44.0209C39.3094 43.9482 39.4387 43.8734 39.5666 43.7966C40.3911 43.3017 41.3592 43.0586 42.3013 43.2514L44.3041 43.6613C45.7097 43.9489 47.1417 43.3048 47.8591 42.0623L48.8941 40.2696C49.6114 39.0271 49.4532 37.4649 48.5013 36.3914L47.143 34.8597C46.5065 34.1418 46.2314 33.1846 46.2466 32.2253C46.249 32.0747 46.249 31.9239 46.2466 31.7733C46.2314 30.814 46.5065 29.8568 47.143 29.1389L48.5013 27.6072C49.4532 26.5337 49.6114 24.9715 48.8941 23.7289L47.8591 21.9363C47.1417 20.6938 45.7097 20.0497 44.3041 20.3373L42.3012 20.7472C41.3591 20.94 40.391 20.697 39.5665 20.202C39.4386 20.1252 39.3094 20.0505 39.1789 19.9778C38.3397 19.5106 37.6464 18.7942 37.3427 17.883L36.6967 15.9453C36.243 14.5841 34.9692 13.666 33.5345 13.666H31.4645C30.0297 13.666 28.756 14.5841 28.3022 15.9453L27.6563 17.883ZM37.4996 31.9993C37.4996 34.7608 35.261 36.9993 32.4996 36.9993C29.7382 36.9993 27.4996 34.7608 27.4996 31.9993C27.4996 29.2379 29.7382 26.9993 32.4996 26.9993C35.261 26.9993 37.4996 29.2379 37.4996 31.9993Z" fill="black"/>
</svg>
