<svg width="65" height="64" viewBox="0 0 65 64" fill="none" xmlns="http://www.w3.org/2000/svg">
<rect x="1.56667" y="1.06667" width="61.8667" height="61.8667" rx="30.9333" stroke="#0C1C2C" stroke-width="2.13333"/>
<rect x="2.06667" y="1.06667" width="61.8667" height="61.8667" rx="30.9333" stroke="#0C1C2C" stroke-width="2.13333"/>
<rect x="2.06667" y="1.06667" width="61.8667" height="61.8667" rx="30.9333" stroke="#0C1C2C" stroke-width="2.13333"/>
<rect x="2.06667" y="1.06667" width="61.8667" height="61.8667" rx="30.9333" stroke="#0C1C2C" stroke-width="2.13333"/>
<path d="M32.1459 18.502C32.3688 18.3923 32.631 18.3923 32.8539 18.502L45.1332 24.5498C45.4062 24.6847 45.5793 24.963 45.5795 25.2676V28.4414C45.5793 28.8834 45.2206 29.2419 44.7787 29.2422H43.7103V39.7734H44.6713C45.1723 39.7735 45.5792 40.1797 45.5795 40.6807V43.6709C45.5793 44.172 45.1724 44.5791 44.6713 44.5791H20.3275C19.8267 44.5788 19.4205 44.1718 19.4203 43.6709V40.6807C19.4206 40.1799 19.8267 39.7737 20.3275 39.7734H21.2894V29.2422H20.2211C19.779 29.2421 19.4204 28.8835 19.4203 28.4414V25.2676C19.4204 24.9628 19.5942 24.6846 19.8676 24.5498L32.1459 18.502ZM24.4916 39.7734H27.6957V29.2422H24.4916V39.7734ZM30.8988 39.7734H34.101V29.2422H30.8988V39.7734ZM37.3041 39.7734H40.5082V29.2422H37.3041V39.7734ZM32.4994 21.6211C31.173 21.6214 30.0963 22.6981 30.0961 24.0244C30.0961 25.351 31.1729 26.4274 32.4994 26.4277C33.8262 26.4277 34.9027 25.3512 34.9027 24.0244C34.9025 22.6979 33.826 21.6211 32.4994 21.6211Z" fill="#0C1C2C"/>
</svg>
