<svg width="65" height="64" viewBox="0 0 65 64" fill="none" xmlns="http://www.w3.org/2000/svg">
<rect x="1.56667" y="1.06667" width="61.8667" height="61.8667" rx="30.9333" stroke="#0C1C2C" stroke-width="2.13333"/>
<rect x="1.56667" y="1.06667" width="61.8667" height="61.8667" rx="30.9333" stroke="#0C1C2C" stroke-width="2.13333"/>
<rect x="1.56667" y="1.06667" width="61.8667" height="61.8667" rx="30.9333" stroke="#0C1C2C" stroke-width="2.13333"/>
<path d="M32.5723 23.1787C32.7235 23.1044 32.9015 23.1043 33.0527 23.1787L41.3867 27.2832C41.5719 27.3748 41.6893 27.5639 41.6895 27.7705V29.9248C41.6894 30.2247 41.4463 30.4674 41.1465 30.4678H40.4209V37.6152H41.0732C41.4132 37.6154 41.6893 37.8915 41.6895 38.2314V40.2607C41.6893 40.6007 41.4132 40.8768 41.0732 40.877H24.5518C24.2118 40.8768 23.9357 40.6007 23.9355 40.2607V38.2314C23.9357 37.8915 24.2118 37.6153 24.5518 37.6152H25.2041V30.4678H24.4795C24.1794 30.4678 23.9356 30.2249 23.9355 29.9248V27.7705C23.9357 27.5637 24.0538 27.3747 24.2393 27.2832L32.5723 23.1787ZM27.3779 37.6152H29.5518V30.4678H27.3779V37.6152ZM31.7256 37.6152H33.8994V30.4678H31.7256V37.6152ZM36.0732 37.6152H38.2471V30.4678H36.0732V37.6152ZM32.8125 25.2959C31.9123 25.2961 31.1819 26.0266 31.1816 26.9268C31.1816 27.8271 31.9122 28.5574 32.8125 28.5576C33.7128 28.5574 34.4434 27.8271 34.4434 26.9268C34.4431 26.0266 33.7127 25.2961 32.8125 25.2959Z" fill="black"/>
</svg>
