<svg width="65" height="64" viewBox="0 0 65 64" fill="none" xmlns="http://www.w3.org/2000/svg">
<rect x="1.56667" y="1.06667" width="61.8667" height="61.8667" rx="30.9333" stroke="#0C1C2C" stroke-width="2.13333"/>
<rect x="1.56667" y="1.06667" width="61.8667" height="61.8667" rx="30.9333" stroke="#0C1C2C" stroke-width="2.13333"/>
<path d="M27.5039 21.0488H37.4473C37.5042 21.0488 37.5537 21.0895 37.5635 21.1455L39.0918 30.0479C39.1041 30.1194 39.0491 30.1845 38.9766 30.1846H25.9922C25.9197 30.1845 25.8648 30.1193 25.877 30.0479L27.3887 21.1465C27.3982 21.0903 27.4469 21.049 27.5039 21.0488Z" fill="black" stroke="black" stroke-width="0.702788"/>
<path d="M20.4658 33.7324H30.0898C30.1467 33.7324 30.1952 33.7731 30.2051 33.8291L31.6797 42.2236C31.6921 42.2952 31.6371 42.3603 31.5645 42.3604H19.0078C18.9353 42.3602 18.8802 42.2951 18.8926 42.2236L20.3506 33.8291C20.3604 33.7732 20.4091 33.7326 20.4658 33.7324Z" fill="black" stroke="black" stroke-width="0.702788"/>
<path d="M35.2939 33.7324H44.918C44.9748 33.7324 45.0233 33.7731 45.0332 33.8291L46.5078 42.2236C46.5202 42.2952 46.4652 42.3603 46.3926 42.3604H33.8359C33.7634 42.3602 33.7083 42.2951 33.7207 42.2236L35.1787 33.8291C35.1885 33.7732 35.2372 33.7326 35.2939 33.7324Z" fill="black" stroke="black" stroke-width="0.702788"/>
</svg>
