<svg width="64" height="64" viewBox="0 0 64 64" fill="none" xmlns="http://www.w3.org/2000/svg">
<rect x="1.06667" y="1.06667" width="61.8667" height="61.8667" rx="30.9333" stroke="#0C1C2C" stroke-width="2.13333"/>
<rect x="1.06667" y="1.06667" width="61.8667" height="61.8667" rx="30.9333" stroke="#0C1C2C" stroke-width="2.13333"/>
<path fill-rule="evenodd" clip-rule="evenodd" d="M29.9943 20.7563C30.4097 20.7193 30.826 20.8461 31.1527 21.1131C31.5265 21.4185 31.7436 21.8763 31.7436 22.3592V28.4605C31.744 30.5327 33.4231 32.2123 35.4937 32.2124H41.6425C42.1241 32.2124 42.5812 32.4285 42.8864 32.8013C43.1917 33.1742 43.3133 33.6652 43.2185 34.1379C42.0581 39.9188 36.5158 44.1197 30.2213 43.0968C25.6255 42.3551 21.9152 38.759 20.9828 34.2222L20.901 33.7799V33.7762C19.8918 27.5037 24.0608 21.9577 29.816 20.7832L29.9943 20.7563Z" fill="black"/>
<ellipse cx="37.6251" cy="26.3751" rx="3.37509" ry="3.37509" fill="black"/>
</svg>
