<svg width="65" height="64" viewBox="0 0 65 64" fill="none" xmlns="http://www.w3.org/2000/svg">
<rect x="1.565" y="1.065" width="61.87" height="61.87" rx="30.935" stroke="#0C1C2C" stroke-width="2.13"/>
<path d="M32.9599 15.5017C33.1227 15.479 33.2891 15.4732 33.457 15.4832C33.6254 15.4933 33.7955 15.5197 33.9648 15.565C35.2329 15.9049 36.0183 17.1488 35.8124 18.4175C35.7987 18.502 35.7796 18.5863 35.757 18.6707L35.6357 19.1283C35.7859 19.1557 35.9362 19.186 36.0867 19.218C36.2814 19.2595 36.4766 19.3044 36.6709 19.3565L37.0085 19.4528C37.236 19.5204 37.4615 19.594 37.6824 19.673L37.8037 19.218C38.121 18.0349 39.2248 17.2721 40.4017 17.3427C40.5701 17.3528 40.7401 17.3804 40.9094 17.4258L40.9688 17.4443C41.1551 17.4991 41.3295 17.5746 41.4923 17.6658C41.5246 17.6839 41.5574 17.7005 41.5886 17.7199C41.6186 17.7384 41.6467 17.7595 41.6757 17.7792C41.7163 17.8068 41.7569 17.8339 41.7957 17.8636C41.8165 17.8796 41.836 17.8971 41.8563 17.9138C41.8921 17.9431 41.9278 17.9723 41.9618 18.0034C41.9989 18.0373 42.0338 18.073 42.0686 18.1089C42.0908 18.1317 42.1134 18.1539 42.1346 18.1775C42.1616 18.2075 42.1869 18.2387 42.2124 18.2698C42.2396 18.3031 42.2661 18.3368 42.2915 18.3714C42.3091 18.3953 42.3262 18.4194 42.343 18.4439C42.3696 18.4828 42.3951 18.5223 42.4194 18.5626C42.4386 18.5943 42.457 18.6264 42.4748 18.6589C42.4957 18.697 42.5153 18.7357 42.5342 18.7749C42.5493 18.8063 42.5638 18.8379 42.5777 18.8699C42.5922 18.9034 42.6055 18.9373 42.6186 18.9714C42.6356 19.0158 42.6515 19.0605 42.6661 19.1059C42.676 19.1369 42.685 19.1681 42.6938 19.1996C42.7047 19.239 42.7164 19.2782 42.7254 19.3183C42.7345 19.3583 42.7407 19.399 42.7478 19.4396C42.7553 19.4825 42.7623 19.5254 42.7676 19.5688C42.7714 19.5999 42.7729 19.6312 42.7755 19.6625C42.7793 19.7072 42.7834 19.7518 42.7847 19.797C42.7921 20.0388 42.7675 20.2858 42.7017 20.5315L42.186 22.453C42.8332 23.07 43.4138 23.7494 43.9163 24.4799C44.2178 24.9182 44.491 25.3756 44.7352 25.8475C44.7888 25.9511 44.8313 26.0573 44.8618 26.1653C44.8922 26.2729 44.9114 26.3821 44.9198 26.4911C44.9319 26.6472 44.9187 26.8026 44.8882 26.954C44.7908 27.4392 44.4849 27.8786 44.0112 28.1237L42.5935 28.857L42.5065 28.9018L42.3496 28.973C42.2475 29.0133 42.1431 29.0419 42.0383 29.0614C42.0116 29.0663 41.9847 29.0696 41.9579 29.0732C41.9306 29.077 41.9034 29.0801 41.8761 29.0825C41.8532 29.0844 41.8304 29.0854 41.8075 29.0864C41.7784 29.0877 41.7495 29.0893 41.7205 29.0891C41.6861 29.0888 41.6518 29.0875 41.6176 29.0851C41.6035 29.0842 41.5895 29.0825 41.5754 29.0812C41.5409 29.0779 41.5067 29.0733 41.4726 29.068C41.4492 29.0643 41.4259 29.0607 41.4027 29.0561C41.3828 29.0521 41.3631 29.0476 41.3433 29.0429C41.3114 29.0354 41.2798 29.0272 41.2484 29.0179C41.2268 29.0114 41.2051 29.0054 41.1837 28.9981C41.1535 28.9877 41.1238 28.9759 41.0941 28.9638C41.0786 28.9575 41.0632 28.9508 41.0479 28.944C41.0123 28.9283 40.9769 28.9121 40.9424 28.8939C40.929 28.8868 40.9161 28.8789 40.9029 28.8715C40.8735 28.855 40.8442 28.8383 40.8158 28.82C40.799 28.8092 40.7821 28.7985 40.7657 28.7871C40.7336 28.7647 40.7027 28.7405 40.6721 28.7159C40.6618 28.7076 40.6518 28.6993 40.6417 28.6908C40.6128 28.6664 40.5847 28.6408 40.5573 28.6143C40.5433 28.6007 40.5287 28.5876 40.5151 28.5734C40.4985 28.5562 40.4836 28.5374 40.4677 28.5194C40.4469 28.4959 40.4252 28.473 40.4057 28.4481C40.3402 28.3651 40.2807 28.2752 40.2303 28.1778C40.1167 27.9584 39.9934 27.7444 39.8597 27.5369C39.7264 27.3299 39.5836 27.1291 39.4311 26.9355C39.1256 26.5476 38.7822 26.1884 38.4051 25.8633C38.2164 25.7007 38.0195 25.5464 37.8143 25.4018C37.6095 25.2575 37.3964 25.1231 37.176 24.9982C37.0653 24.9355 36.9529 24.8751 36.8384 24.8176C36.6104 24.703 36.3751 24.5991 36.1328 24.5063C36.0115 24.4599 35.8883 24.4165 35.7636 24.3758L35.5605 24.3151L35.3574 24.2558C32.9717 23.6166 30.549 24.1659 28.7134 25.5389C28.4636 25.7258 28.2237 25.9264 27.9973 26.1429C27.8172 26.3151 27.6451 26.4964 27.4816 26.6863C27.2367 26.9708 27.011 27.2745 26.8078 27.5962C26.5365 28.0256 26.3039 28.4864 26.118 28.9757C26.0716 29.0979 26.0281 29.2219 25.9875 29.3476C25.9469 29.4733 25.91 29.6009 25.8754 29.73C25.3221 31.7952 25.6584 33.8892 26.6495 35.6052C26.7383 35.759 26.8339 35.9087 26.933 36.0562C27.0309 36.2017 27.1327 36.3447 27.2403 36.4835C27.3487 36.6232 27.4626 36.7587 27.5806 36.891C28.5506 37.9788 29.8379 38.8066 31.3509 39.212L31.7611 39.3109C32.2747 39.4194 32.7888 39.4743 33.2961 39.4784C34.6913 39.49 36.0399 39.12 37.2155 38.4432L37.5321 38.2506C37.6791 38.1565 37.835 38.0875 37.9949 38.0436C38.0486 38.0288 38.1028 38.0173 38.1572 38.008C38.2649 37.9896 38.3736 37.9816 38.4816 37.9842C39.0239 37.9972 39.5504 38.2712 39.865 38.7623L40.7776 40.1879C40.9976 40.5315 41.0788 40.9253 41.0334 41.301C41.014 41.462 40.9711 41.6198 40.9068 41.7691C40.7996 42.0179 40.6316 42.2432 40.4083 42.4206C40.3635 42.4562 40.3164 42.4906 40.2672 42.5221L39.8135 42.7991C39.6665 42.8848 39.5169 42.9659 39.3665 43.0457C39.3432 43.0581 39.3199 43.0704 39.2966 43.0826C39.1746 43.1464 39.0513 43.2074 38.9273 43.2673C38.8736 43.2931 38.8192 43.3173 38.7651 43.3424C38.6622 43.3903 38.5594 43.4384 38.4552 43.4835C38.4053 43.5052 38.355 43.5258 38.3049 43.5468C38.1943 43.5931 38.0832 43.6381 37.9712 43.6814C37.9242 43.6995 37.8773 43.7178 37.8301 43.7354C37.7321 43.7719 37.6336 43.8068 37.5347 43.8409C37.4615 43.8662 37.3881 43.8908 37.3145 43.9148C37.2161 43.9468 37.1169 43.9761 37.0177 44.0058C36.9627 44.0222 36.9082 44.0402 36.8529 44.0559C36.7217 44.0932 36.5898 44.1282 36.4573 44.1614C36.4259 44.1692 36.395 44.1788 36.3636 44.1864L35.848 46.1105C35.7948 46.3086 35.7163 46.4932 35.6225 46.6657C35.5976 46.7115 35.5721 46.7565 35.5447 46.8003C35.5363 46.8135 35.5281 46.8268 35.5196 46.8398C35.4841 46.8942 35.4468 46.947 35.4075 46.9981C35.3916 47.0187 35.3752 47.0387 35.3587 47.0587C35.3302 47.0936 35.3019 47.1285 35.2717 47.1616C35.2397 47.1966 35.2052 47.2288 35.1714 47.2618C35.1432 47.2895 35.1152 47.3173 35.0857 47.3436C35.064 47.3629 35.0421 47.3818 35.0198 47.4003C34.9804 47.433 34.9397 47.4637 34.8985 47.4939C34.8727 47.5128 34.847 47.5314 34.8206 47.5493C34.7843 47.574 34.7475 47.5978 34.7099 47.6205C34.6782 47.6397 34.6461 47.6581 34.6136 47.6759C34.5754 47.6968 34.5367 47.7164 34.4975 47.7353C34.467 47.75 34.4363 47.764 34.4052 47.7775C34.3652 47.7948 34.3248 47.811 34.2839 47.8263C34.249 47.8393 34.2139 47.8517 34.1784 47.8632C34.1413 47.8752 34.104 47.8858 34.0663 47.8962C34.0248 47.9076 33.9832 47.9185 33.941 47.9278C33.913 47.934 33.8849 47.9397 33.8566 47.945C33.8059 47.9543 33.7551 47.9624 33.7036 47.9687C33.6708 47.9727 33.6378 47.9752 33.6047 47.9779C33.5622 47.9814 33.5197 47.9845 33.4768 47.9858C33.4186 47.9876 33.3602 47.9868 33.3014 47.9845C33.2817 47.9837 33.2619 47.9845 33.2421 47.9832C33.1784 47.9792 33.1148 47.9711 33.0508 47.9621C33.0303 47.9592 33.0095 47.9576 32.9889 47.9542C32.9289 47.9443 32.8695 47.9303 32.8095 47.9159C32.7874 47.9107 32.7643 47.9087 32.7423 47.9028C32.6578 47.8801 32.5757 47.8527 32.4956 47.8223C32.4195 47.7934 32.3459 47.7602 32.2741 47.7247C32.2376 47.7067 32.2026 47.6863 32.1673 47.6667C32.1305 47.6463 32.0933 47.6268 32.0578 47.6047C32.0284 47.5864 32.0006 47.5661 31.9721 47.5467C31.9342 47.5208 31.8963 47.4953 31.86 47.4676C31.8284 47.4434 31.798 47.4179 31.7677 47.3924C31.7378 47.3672 31.7079 47.3423 31.6793 47.3159C31.648 47.2869 31.6181 47.2567 31.5883 47.2262C31.5637 47.2011 31.5393 47.1759 31.5158 47.1497C31.4888 47.1198 31.4634 47.0886 31.438 47.0574C31.4108 47.0241 31.3843 46.9905 31.3589 46.9559C31.3394 46.9294 31.3206 46.9026 31.3021 46.8754C31.2775 46.8391 31.2537 46.8022 31.2309 46.7647C31.2105 46.7309 31.1917 46.6964 31.1729 46.6618C31.1553 46.6295 31.1376 46.5973 31.1215 46.5642C31.1042 46.5288 31.087 46.4935 31.0714 46.4574C31.0526 46.4141 31.0362 46.3699 31.0199 46.3255C31.0106 46.3 31.0008 46.2748 30.9922 46.249C30.9747 46.1961 30.9601 46.1423 30.9461 46.0881C30.9399 46.0644 30.9331 46.0408 30.9276 46.0169C30.9162 45.9672 30.907 45.9171 30.8986 45.8666C30.8935 45.8359 30.8881 45.8052 30.8841 45.7743C30.8764 45.7144 30.8716 45.6542 30.8683 45.5936C30.8671 45.5729 30.8649 45.5523 30.8643 45.5316C30.863 45.4895 30.8648 45.4473 30.8656 45.405C30.8664 45.3642 30.8655 45.3233 30.8683 45.2823C30.8715 45.2353 30.8795 45.1885 30.8854 45.1412C30.8891 45.1115 30.8898 45.0813 30.8946 45.0516L30.8973 45.0357C30.9106 44.9565 30.9289 44.8775 30.95 44.7984L31.0714 44.3421C30.8403 44.3 30.6087 44.2523 30.3777 44.197L30.0374 44.11L29.5258 43.9596C29.3577 43.9061 29.1906 43.8484 29.0259 43.7895L28.9033 44.2497C28.8353 44.5033 28.7319 44.7379 28.5987 44.9487C28.3322 45.3703 27.9484 45.6974 27.5054 45.8995C27.3578 45.9668 27.204 46.0209 27.0451 46.0591C26.6475 46.1547 26.2203 46.1552 25.7976 46.042C25.6367 45.9988 25.4842 45.9396 25.34 45.8692C25.3016 45.8505 25.2649 45.829 25.2279 45.8085C25.1891 45.7871 25.1505 45.7659 25.1131 45.7426C25.0956 45.7317 25.0789 45.7196 25.0617 45.7083C25.01 45.6743 24.9587 45.6403 24.91 45.6028C24.8902 45.5875 24.8713 45.5711 24.852 45.5553C24.813 45.5235 24.7741 45.4917 24.7373 45.4577C24.7087 45.4313 24.6815 45.4036 24.6542 45.376C24.6264 45.3479 24.5988 45.3196 24.5724 45.2903C24.5455 45.2603 24.5201 45.2291 24.4946 45.1979C24.468 45.1654 24.4417 45.1328 24.4168 45.099C24.3988 45.0747 24.3812 45.0502 24.3641 45.0252C24.3369 44.9855 24.3111 44.945 24.2863 44.9039C24.2666 44.8713 24.2477 44.8383 24.2295 44.805C24.2095 44.7682 24.1911 44.7306 24.1728 44.6929C24.1589 44.664 24.1448 44.6352 24.132 44.6058C24.1134 44.5633 24.0968 44.5201 24.0805 44.4766C24.0679 44.4428 24.0548 44.4093 24.0436 44.375C24.03 44.3332 24.0181 44.291 24.0067 44.2484C23.9988 44.219 23.9898 44.1898 23.9829 44.1601C23.9677 44.094 23.9559 44.0271 23.946 43.9596C23.9444 43.9486 23.9422 43.9377 23.9407 43.9266C23.9087 43.6867 23.9098 43.4393 23.95 43.1908C23.9636 43.1063 23.9828 43.022 24.0054 42.9376L24.5197 41.0161C24.2831 40.7906 24.057 40.5552 23.8392 40.3132C23.7353 40.1977 23.6341 40.0801 23.5345 39.9611C23.3173 39.7014 23.1091 39.4347 22.9134 39.1593L22.9121 39.1579L22.8659 39.0933C22.7497 38.9275 22.6392 38.7579 22.531 38.5869C22.4967 38.5328 22.4615 38.4793 22.4281 38.4247C22.3115 38.2344 22.201 38.0405 22.0944 37.8444C22.0728 37.8045 22.0511 37.7646 22.0298 37.7244C21.9949 37.6584 21.9608 37.5919 21.927 37.5253C21.8933 37.459 21.8592 37.393 21.8267 37.3262C21.8038 37.2789 21.7818 37.2312 21.7595 37.1837C21.7228 37.1058 21.6865 37.0277 21.6513 36.949C21.6275 36.8956 21.6046 36.8418 21.5814 36.7881C21.5485 36.7115 21.5166 36.6345 21.4852 36.5573C21.4655 36.5091 21.4462 36.4607 21.4271 36.4122C21.3963 36.3338 21.3655 36.2553 21.3361 36.1762C21.3168 36.124 21.2981 36.0717 21.2794 36.0193C21.2538 35.9474 21.2286 35.8753 21.2043 35.803C21.1746 35.7146 21.1464 35.6257 21.1185 35.5366C21.1092 35.5067 21.1 35.4768 21.0909 35.4469C21.0604 35.3466 21.0306 35.246 21.0025 35.1449C20.9879 35.0923 20.9742 35.0395 20.9603 34.9866C20.9398 34.9091 20.92 34.8313 20.9009 34.7532C20.8912 34.7132 20.8813 34.6733 20.8719 34.6332C20.8493 34.5365 20.829 34.4392 20.8086 34.3418C20.8025 34.3123 20.7961 34.2829 20.7902 34.2534C20.7704 34.1552 20.751 34.0568 20.7335 33.958C20.722 33.8935 20.7109 33.8289 20.7005 33.7641C20.6902 33.7005 20.6808 33.6368 20.6715 33.5729C20.657 33.4738 20.644 33.3745 20.6319 33.2749C20.6276 33.2397 20.6227 33.2046 20.6187 33.1694C20.6077 33.072 20.5985 32.9744 20.5897 32.8766C20.5852 32.8265 20.5804 32.7765 20.5765 32.7263C20.5687 32.6254 20.5622 32.5243 20.5567 32.4229C20.555 32.39 20.553 32.357 20.5515 32.324C20.5467 32.2214 20.5445 32.1185 20.5422 32.0154C20.5413 31.9733 20.5401 31.9311 20.5396 31.8888C20.5387 31.8116 20.5391 31.7342 20.5396 31.6567C20.541 31.4437 20.5459 31.23 20.5581 31.0158C20.5616 30.9542 20.5682 30.8928 20.5726 30.8312C20.5785 30.7482 20.5821 30.665 20.5897 30.5819C20.5963 30.5102 20.6057 30.4387 20.6135 30.367C20.6364 30.1549 20.664 29.9425 20.6979 29.73C20.7442 29.4392 20.8008 29.1479 20.868 28.857L20.9774 28.4178C20.9802 28.4076 20.9839 28.3977 20.9867 28.3875C21.1027 27.9588 21.2373 27.5406 21.3929 27.1346C21.4461 26.9957 21.5013 26.858 21.559 26.7219C23.17 22.9183 26.4875 20.2129 30.3447 19.2774L30.859 17.3585C31.1309 16.344 31.9811 15.6379 32.9599 15.5017Z" fill="black"/>
</svg>
