<svg width="65" height="64" viewBox="0 0 65 64" fill="none" xmlns="http://www.w3.org/2000/svg">
<rect x="1.40065" y="1.06667" width="61.8667" height="61.8667" rx="30.9333" stroke="#0C1C2C" stroke-width="2.13333"/>
<rect x="1.40065" y="1.06667" width="61.8667" height="61.8667" rx="30.9333" stroke="#0C1C2C" stroke-width="2.13333"/>
<path d="M31.7471 16.2705C31.843 16.0302 31.939 15.9503 32.2266 16.0303C33.1861 16.2707 34.0503 16.4306 35.0098 16.5908C35.2974 16.6709 35.297 16.751 35.2012 16.9111C34.8174 18.1931 34.4336 19.5559 34.0498 20.8379C34.0498 20.918 34.05 20.9981 33.9541 21.1582C34.7216 21.3184 35.585 21.4785 36.3525 21.6387C36.4485 21.6387 36.5447 21.4786 36.6406 21.3984C36.9285 20.3568 37.2168 19.3951 37.6006 18.3535C37.6965 18.0333 37.7918 17.7128 37.8877 17.3926C37.8877 17.2324 37.9839 17.1524 38.1758 17.2324C39.1353 17.4728 40.095 17.6327 41.1504 17.8731C41.2463 17.8731 41.2468 17.9531 41.3428 17.9531C41.0549 18.9948 40.7664 19.9565 40.4785 20.918C40.3826 21.3185 40.2866 21.7196 40.0947 22.1201C39.9991 22.3601 40.0952 22.4404 40.3828 22.5205C41.4382 22.9211 42.4934 23.3221 43.5488 23.7227C44.5083 24.2034 45.3723 24.8443 46.0439 25.6455C46.9074 26.8473 47.0039 28.1292 46.6201 29.4111C46.3323 30.2924 45.9481 31.0934 45.1807 31.7344C44.605 32.2151 43.8369 32.536 43.0693 32.7764C42.9734 32.7765 42.8773 32.8564 42.6855 32.8564C43.0692 33.0968 43.4532 33.2568 43.8369 33.4971C44.9883 34.2182 45.7558 35.1 46.1396 36.2217C46.3315 37.1031 46.2361 38.0649 45.9482 38.9463C45.5645 40.0679 45.0841 41.0289 44.2207 41.9102C43.1653 42.9518 41.8223 43.5136 40.2871 43.6738C38.2721 43.9142 36.3526 43.7531 34.4336 43.5127C34.146 43.4328 33.9543 43.5136 33.8584 43.7539C33.4746 45.0358 33.0908 46.3978 32.707 47.6797C32.6111 48.0002 32.6106 48.0802 32.1309 47.9199C31.2673 47.7597 30.3078 47.5196 29.4443 47.3594C29.1566 47.2793 29.1571 47.1992 29.2529 47.0391C29.6367 45.6769 30.0202 44.3142 30.5 43.0322C30.5001 42.8722 30.5957 42.792 30.4043 42.7119C29.6367 42.5517 28.8684 42.3917 28.0049 42.2314C27.813 42.9525 27.5249 43.6735 27.333 44.3945C27.1411 45.1155 26.854 45.8366 26.6621 46.5576C26.5662 46.7178 26.566 46.7978 26.2783 46.7178C25.3188 46.4774 24.3589 46.3175 23.3994 46.1572C23.1116 46.0771 23.1121 45.9972 23.208 45.8369C23.5918 44.4748 23.9753 43.1121 24.4551 41.8301C24.4554 41.7501 24.5508 41.6697 24.5508 41.5098C22.3439 41.029 20.1368 40.5481 17.834 40.0674C18.0258 39.747 18.1226 39.507 18.3144 39.1865C18.6982 38.4656 19.0813 37.7444 19.3691 37.1035C19.4651 36.8631 19.5618 36.8623 19.8496 36.8623C20.5211 37.0225 21.2884 37.1835 21.96 37.2637C22.7276 37.4239 23.3035 37.1029 23.3994 36.542C24.6468 32.4557 25.8945 28.3695 27.0459 24.2031C27.2378 23.5622 26.7579 22.8411 25.8945 22.6006C25.031 22.3602 24.167 22.2003 23.3994 22.04C23.2076 22.04 23.1121 21.9591 23.208 21.7988C23.4734 20.9861 23.7395 20.1055 24.0049 19.2822C24.9865 19.4961 25.9676 19.6524 26.9492 19.876C28.0047 20.1164 29.0607 20.2772 30.1162 20.5176C30.4039 20.5976 30.4998 20.5167 30.5957 20.2764C30.9795 18.9144 31.3633 17.6325 31.7471 16.2705ZM30.8906 33.0303C30.6104 32.9498 30.6099 33.0302 30.5166 33.2715C30.3297 34.0767 30.0492 34.8022 29.8623 35.6074C29.4885 36.7346 29.2078 37.8617 28.834 39.0693C28.9274 39.0693 29.0215 39.1504 29.0215 39.1504C30.5168 39.4725 32.1056 39.8745 33.6943 39.9551C34.8158 40.0356 35.844 40.0359 36.8721 39.7139C38.6477 39.2308 39.3958 37.2181 38.3682 35.9297C37.9008 35.2855 37.153 34.8821 36.4053 34.4795C34.7229 33.6743 32.7599 33.3524 30.8906 33.0303ZM32.9424 25.0293C32.6468 24.9518 32.5478 25.0291 32.4492 25.2617C31.9566 26.8901 31.4642 28.441 30.873 30.0693C30.7745 30.2244 30.8732 30.3023 31.0703 30.3799C31.4643 30.4574 31.7602 30.5348 32.1543 30.6123C33.6321 30.7674 34.9129 31 36.4893 31C36.6863 31 37.1791 30.9223 37.5732 30.8447C39.4453 30.5346 40.4313 28.829 39.4463 27.5107C38.9536 26.8129 38.0665 26.3473 37.1797 26.0371C35.8002 25.5719 34.4204 25.3395 32.9424 25.0293ZM23.8037 19.2393C23.697 19.3046 23.7193 19.2887 23.7832 19.2354C23.79 19.2369 23.7969 19.2377 23.8037 19.2393ZM24.0049 19.2822C23.9379 19.2676 23.8706 19.2544 23.8037 19.2393C23.857 19.2066 23.9435 19.1552 24.0713 19.0752C24.0489 19.1437 24.0272 19.2129 24.0049 19.2822Z" fill="black"/>
</svg>
