<svg width="65" height="64" viewBox="0 0 65 64" fill="none" xmlns="http://www.w3.org/2000/svg">
<rect x="1.56667" y="1.06667" width="61.8667" height="61.8667" rx="30.9333" stroke="#0C1C2C" stroke-width="2.13333"/>
<rect x="1.565" y="1.065" width="61.87" height="61.87" rx="30.935" stroke="#0C1C2C" stroke-width="2.13"/>
<path d="M32.6543 21.0157C32.7645 21.0003 32.8771 20.9964 32.9908 21.0032C33.1047 21.01 33.2198 21.0278 33.3344 21.0585C34.1926 21.2886 34.7241 22.1303 34.5847 22.989C34.5755 23.0461 34.5626 23.1032 34.5473 23.1603L34.4652 23.47C34.5669 23.4885 34.6686 23.509 34.7704 23.5307C34.9021 23.5588 35.0343 23.5892 35.1658 23.6244L35.3942 23.6896C35.5482 23.7353 35.7008 23.7851 35.8503 23.8386L35.9324 23.5307C36.1471 22.7301 36.8941 22.2138 37.6906 22.2616C37.8046 22.2684 37.9196 22.2871 38.0342 22.3178L38.0744 22.3303C38.2004 22.3674 38.3185 22.4185 38.4287 22.4803C38.4505 22.4925 38.4727 22.5038 38.4938 22.5169C38.5141 22.5294 38.5331 22.5437 38.5527 22.557C38.5802 22.5757 38.6077 22.594 38.6339 22.6141C38.648 22.625 38.6613 22.6368 38.675 22.648C38.6992 22.6679 38.7234 22.6877 38.7464 22.7087C38.7715 22.7317 38.7951 22.7558 38.8187 22.7801C38.8337 22.7956 38.849 22.8106 38.8633 22.8265C38.8816 22.8468 38.8987 22.8679 38.916 22.889C38.9344 22.9115 38.9523 22.9343 38.9695 22.9577C38.9814 22.9739 38.993 22.9903 39.0043 23.0068C39.0223 23.0332 39.0396 23.0599 39.0561 23.0871C39.0691 23.1086 39.0815 23.1303 39.0936 23.1523C39.1077 23.1781 39.1209 23.2043 39.1337 23.2308C39.144 23.2521 39.1538 23.2734 39.1632 23.2951C39.173 23.3178 39.182 23.3407 39.1909 23.3638C39.2024 23.3939 39.2132 23.4241 39.223 23.4549C39.2297 23.4758 39.2358 23.497 39.2417 23.5182C39.2491 23.5449 39.257 23.5715 39.2631 23.5985C39.2693 23.6257 39.2735 23.6532 39.2783 23.6807C39.2834 23.7097 39.2881 23.7387 39.2917 23.7681C39.2943 23.7891 39.2953 23.8103 39.2971 23.8315C39.2996 23.8617 39.3024 23.892 39.3033 23.9225C39.3083 24.0862 39.2916 24.2533 39.2471 24.4196L38.8981 25.72C39.3361 26.1375 39.729 26.5973 40.0691 27.0917C40.2731 27.3883 40.458 27.6979 40.6233 28.0172C40.6595 28.0873 40.6883 28.1592 40.709 28.2323C40.7295 28.3051 40.7425 28.379 40.7482 28.4528C40.7564 28.5584 40.7474 28.6636 40.7268 28.766C40.6609 29.0944 40.4539 29.3917 40.1333 29.5577L39.1739 30.0539L39.115 30.0842L39.0088 30.1324C38.9397 30.1597 38.8691 30.1791 38.7982 30.1922C38.7801 30.1956 38.7619 30.1978 38.7437 30.2002C38.7253 30.2027 38.7069 30.2049 38.6884 30.2065C38.6729 30.2078 38.6575 30.2085 38.642 30.2092C38.6223 30.21 38.6027 30.2111 38.5831 30.211C38.5598 30.2108 38.5366 30.2099 38.5135 30.2083C38.5039 30.2076 38.4944 30.2065 38.4849 30.2056C38.4615 30.2034 38.4384 30.2003 38.4153 30.1967C38.3995 30.1942 38.3837 30.1918 38.368 30.1886C38.3545 30.186 38.3412 30.1829 38.3278 30.1797C38.3062 30.1746 38.2848 30.1691 38.2636 30.1628C38.2489 30.1584 38.2343 30.1543 38.2198 30.1494C38.1993 30.1423 38.1792 30.1343 38.1591 30.1262C38.1486 30.1219 38.1383 30.1174 38.1279 30.1128C38.1038 30.1021 38.0799 30.0912 38.0565 30.0789C38.0474 30.0741 38.0387 30.0687 38.0297 30.0637C38.0099 30.0525 37.9901 30.0413 37.9708 30.0289C37.9595 30.0216 37.948 30.0143 37.9369 30.0066C37.9152 29.9914 37.8943 29.9751 37.8735 29.9584C37.8666 29.9528 37.8598 29.9472 37.853 29.9414C37.8334 29.9249 37.8145 29.9076 37.7959 29.8897C37.7864 29.8805 37.7766 29.8716 37.7673 29.862C37.7561 29.8503 37.746 29.8376 37.7352 29.8254C37.7212 29.8095 37.7065 29.794 37.6933 29.7772C37.6489 29.721 37.6087 29.6602 37.5746 29.5942C37.4977 29.4458 37.4142 29.3009 37.3238 29.1605C37.2336 29.0205 37.1369 28.8845 37.0337 28.7535C36.827 28.491 36.5946 28.2479 36.3394 28.0279C36.2117 27.9179 36.0784 27.8134 35.9395 27.7156C35.801 27.6179 35.6567 27.527 35.5076 27.4425C35.4327 27.4 35.3566 27.3591 35.2791 27.3202C35.1248 27.2427 34.9656 27.1724 34.8016 27.1096C34.7195 27.0781 34.6362 27.0488 34.5517 27.0212L34.4143 26.9802L34.2768 26.94C32.6623 26.5075 31.0227 26.8792 29.7805 27.8084C29.6115 27.9348 29.4491 28.0706 29.2959 28.2171C29.174 28.3337 29.0576 28.4563 28.9469 28.5848C28.7811 28.7774 28.6284 28.9829 28.4909 29.2007C28.3073 29.4913 28.1499 29.8031 28.0241 30.1342C27.9927 30.2169 27.9632 30.3008 27.9357 30.3859C27.9083 30.471 27.8833 30.5574 27.8599 30.6447C27.4855 32.0423 27.7131 33.4594 28.3838 34.6207C28.4439 34.7248 28.5085 34.8262 28.5757 34.9259C28.6419 35.0244 28.7108 35.1212 28.7836 35.2151C28.857 35.3097 28.934 35.4014 29.0139 35.4909C29.6704 36.2271 30.5415 36.7873 31.5655 37.0617L31.843 37.1286C32.1906 37.202 32.5385 37.2392 32.8819 37.2419C33.8261 37.2498 34.7387 36.9994 35.5344 36.5413L35.7485 36.411C35.848 36.3473 35.9536 36.3006 36.0618 36.2709C36.0981 36.2609 36.1348 36.2531 36.1716 36.2468C36.2445 36.2344 36.318 36.229 36.3911 36.2307C36.7581 36.2395 37.1145 36.4249 37.3273 36.7573L37.9449 37.7221C38.0939 37.9546 38.1488 38.2211 38.1181 38.4753C38.105 38.5843 38.0759 38.6911 38.0324 38.7922C37.9599 38.9606 37.8461 39.113 37.6951 39.2331C37.6647 39.2572 37.6329 39.2804 37.5996 39.3018L37.2925 39.4892C37.193 39.5472 37.0918 39.6021 36.99 39.6561C36.9742 39.6645 36.9585 39.6728 36.9427 39.6811C36.8602 39.7242 36.7767 39.7656 36.6928 39.806C36.6565 39.8236 36.6196 39.8399 36.583 39.8569C36.5134 39.8893 36.4438 39.9218 36.3733 39.9524C36.3395 39.967 36.3055 39.981 36.2715 39.9952C36.1967 40.0266 36.1215 40.057 36.0457 40.0863C36.0139 40.0986 35.9822 40.111 35.9502 40.1229C35.884 40.1476 35.8173 40.1712 35.7503 40.1943C35.7008 40.2114 35.6511 40.228 35.6013 40.2442C35.5347 40.2659 35.4676 40.2858 35.4005 40.3058C35.3632 40.317 35.3263 40.3291 35.2889 40.3397C35.2001 40.365 35.1109 40.3887 35.0212 40.4111C35 40.4165 34.9791 40.4229 34.9578 40.4281L34.6088 41.7302C34.5729 41.8643 34.5198 41.9892 34.4562 42.106C34.4394 42.1369 34.4221 42.1674 34.4036 42.197C34.398 42.206 34.3924 42.2149 34.3866 42.2238C34.3626 42.2606 34.3374 42.2963 34.3108 42.3309C34.3 42.3448 34.2889 42.3583 34.2777 42.3719C34.2584 42.3955 34.2393 42.4191 34.2188 42.4415C34.1972 42.4652 34.1738 42.487 34.151 42.5094C34.1319 42.5281 34.1129 42.5469 34.093 42.5647C34.0783 42.5778 34.0635 42.5905 34.0484 42.6031C34.0217 42.6252 33.9941 42.646 33.9663 42.6664C33.9489 42.6792 33.9315 42.6918 33.9136 42.7039C33.889 42.7206 33.8641 42.7367 33.8386 42.7521C33.8172 42.7651 33.7955 42.7776 33.7735 42.7896C33.7477 42.8037 33.7215 42.817 33.6949 42.8298C33.6743 42.8397 33.6535 42.8492 33.6325 42.8583C33.6054 42.8701 33.578 42.881 33.5504 42.8914C33.5267 42.9002 33.503 42.9085 33.479 42.9163C33.4539 42.9245 33.4286 42.9317 33.4031 42.9387C33.375 42.9464 33.3469 42.9538 33.3183 42.9601C33.2993 42.9642 33.2803 42.9681 33.2612 42.9717C33.2269 42.978 33.1925 42.9835 33.1577 42.9877C33.1354 42.9904 33.1131 42.9922 33.0907 42.994C33.062 42.9963 33.0332 42.9985 33.0042 42.9993C32.9647 43.0005 32.9252 43 32.8855 42.9984C32.8721 42.9979 32.8587 42.9984 32.8453 42.9976C32.8022 42.9948 32.7592 42.9893 32.7159 42.9833C32.702 42.9813 32.6879 42.9802 32.6739 42.9779C32.6334 42.9712 32.5931 42.9618 32.5526 42.952C32.5376 42.9485 32.522 42.9471 32.507 42.9431C32.4499 42.9278 32.3943 42.9093 32.3402 42.8887C32.2886 42.8691 32.2388 42.8466 32.1902 42.8226C32.1655 42.8104 32.1418 42.7966 32.1179 42.7834C32.093 42.7695 32.0679 42.7564 32.0438 42.7414C32.024 42.729 32.0051 42.7153 31.9858 42.7021C31.9602 42.6847 31.9345 42.6674 31.91 42.6486C31.8886 42.6322 31.868 42.615 31.8475 42.5977C31.8273 42.5807 31.807 42.5638 31.7877 42.546C31.7665 42.5263 31.7463 42.5059 31.7261 42.4853C31.7095 42.4682 31.6929 42.4512 31.677 42.4335C31.6588 42.4132 31.6416 42.3921 31.6244 42.371C31.606 42.3485 31.588 42.3257 31.5708 42.3023C31.5577 42.2844 31.5449 42.2663 31.5325 42.2479C31.5158 42.2233 31.4996 42.1983 31.4843 42.1729C31.4705 42.1501 31.4577 42.1267 31.445 42.1033C31.4331 42.0814 31.4211 42.0596 31.4102 42.0372C31.3985 42.0133 31.3868 41.9894 31.3763 41.965C31.3636 41.9356 31.3525 41.9057 31.3415 41.8757C31.3351 41.8585 31.3285 41.8414 31.3227 41.8239C31.3108 41.7881 31.301 41.7517 31.2915 41.7151C31.2873 41.699 31.2827 41.6831 31.279 41.6669C31.2713 41.6332 31.265 41.5993 31.2594 41.5651C31.2559 41.5443 31.2522 41.5236 31.2495 41.5026C31.2444 41.4622 31.2411 41.4214 31.2388 41.3804C31.2381 41.3664 31.2366 41.3525 31.2362 41.3384C31.2353 41.31 31.2365 41.2814 31.237 41.2528C31.2376 41.2252 31.2369 41.1975 31.2388 41.1698C31.241 41.1379 31.2464 41.1062 31.2504 41.0743C31.253 41.0541 31.2534 41.0337 31.2567 41.0136L31.2585 41.0029C31.2675 40.9493 31.2798 40.8958 31.2942 40.8422L31.3763 40.5334C31.2199 40.5049 31.0632 40.4726 30.9068 40.4352L30.6766 40.3763L30.3303 40.2746C30.2166 40.2383 30.1035 40.1993 29.992 40.1595L29.909 40.4709C29.863 40.6425 29.7931 40.8013 29.7029 40.944C29.5226 41.2293 29.2628 41.4506 28.963 41.5874C28.8631 41.633 28.759 41.6696 28.6515 41.6954C28.3824 41.7601 28.0933 41.7605 27.8072 41.6838C27.6984 41.6546 27.5952 41.6146 27.4975 41.5669C27.4716 41.5542 27.4468 41.5397 27.4217 41.5259C27.3954 41.5114 27.3693 41.497 27.344 41.4812C27.3322 41.4738 27.3209 41.4657 27.3092 41.458C27.2742 41.435 27.2396 41.412 27.2066 41.3866C27.1932 41.3763 27.1804 41.3652 27.1673 41.3545C27.1409 41.3329 27.1146 41.3115 27.0897 41.2885C27.0703 41.2706 27.0519 41.2518 27.0334 41.2331C27.0146 41.2141 26.996 41.195 26.9781 41.1751C26.9599 41.1548 26.9427 41.1337 26.9255 41.1126C26.9075 41.0906 26.8897 41.0685 26.8728 41.0457C26.8606 41.0292 26.8487 41.0126 26.8371 40.9957C26.8187 40.9689 26.8013 40.9414 26.7844 40.9136C26.7711 40.8916 26.7584 40.8693 26.7461 40.8467C26.7325 40.8218 26.72 40.7964 26.7077 40.7708C26.6983 40.7513 26.6887 40.7318 26.68 40.7119C26.6674 40.6831 26.6562 40.6539 26.6452 40.6244C26.6367 40.6016 26.6278 40.5789 26.6202 40.5557C26.611 40.5274 26.603 40.4988 26.5952 40.47C26.5899 40.4501 26.5838 40.4304 26.5792 40.4102C26.5689 40.3655 26.5609 40.3203 26.5542 40.2746C26.5531 40.2671 26.5516 40.2597 26.5506 40.2523C26.5289 40.0899 26.5297 39.9224 26.5569 39.7543C26.5661 39.6971 26.5791 39.64 26.5943 39.5829L26.9424 38.2826C26.7823 38.1299 26.6293 37.9707 26.4819 37.8069C26.4116 37.7287 26.3431 37.6491 26.2757 37.5686C26.1287 37.3928 25.9878 37.2124 25.8554 37.026L25.8545 37.0251L25.8232 36.9813C25.7446 36.8691 25.6698 36.7543 25.5966 36.6386C25.5734 36.602 25.5496 36.5658 25.5269 36.5288C25.4481 36.4 25.3732 36.2689 25.3011 36.1361C25.2865 36.1091 25.2718 36.0821 25.2574 36.0549C25.2337 36.0102 25.2107 35.9653 25.1878 35.9202C25.165 35.8753 25.1419 35.8306 25.12 35.7854C25.1044 35.7534 25.0896 35.7212 25.0744 35.689C25.0496 35.6363 25.025 35.5834 25.0013 35.5301C24.9851 35.494 24.9696 35.4576 24.954 35.4213C24.9317 35.3695 24.9101 35.3173 24.8888 35.2651C24.8755 35.2324 24.8624 35.1997 24.8495 35.1669C24.8287 35.1138 24.8078 35.0607 24.788 35.0072C24.7749 34.9719 24.7622 34.9364 24.7496 34.9009C24.7323 34.8523 24.7152 34.8036 24.6987 34.7546C24.6786 34.6948 24.6595 34.6346 24.6407 34.5743C24.6344 34.5541 24.6281 34.5339 24.622 34.5136C24.6013 34.4457 24.5812 34.3777 24.5622 34.3092C24.5523 34.2736 24.543 34.2379 24.5336 34.2021C24.5198 34.1496 24.5063 34.097 24.4934 34.0442C24.4868 34.0171 24.4801 33.9901 24.4738 33.9629C24.4585 33.8975 24.4447 33.8316 24.431 33.7657C24.4268 33.7458 24.4225 33.7259 24.4185 33.7059C24.4051 33.6394 24.3919 33.5729 24.3801 33.506C24.3724 33.4623 24.3649 33.4186 24.3578 33.3748C24.3508 33.3318 24.3444 33.2886 24.3381 33.2454C24.3284 33.1783 24.3196 33.1111 24.3114 33.0437C24.3085 33.0199 24.3051 32.9961 24.3024 32.9723C24.295 32.9064 24.2888 32.8403 24.2828 32.7742C24.2798 32.7403 24.2765 32.7064 24.2739 32.6724C24.2686 32.6041 24.2642 32.5357 24.2605 32.4671C24.2593 32.4448 24.258 32.4225 24.2569 32.4002C24.2537 32.3307 24.2522 32.2611 24.2507 32.1914C24.2501 32.1628 24.2492 32.1343 24.2489 32.1057C24.2483 32.0534 24.2486 32.001 24.2489 31.9486C24.2498 31.8044 24.2531 31.6598 24.2614 31.5149C24.2638 31.4732 24.2682 31.4316 24.2712 31.3899C24.2752 31.3338 24.2777 31.2775 24.2828 31.2212C24.2872 31.1727 24.2936 31.1243 24.2989 31.0758C24.3144 30.9323 24.3331 30.7885 24.356 30.6447C24.3874 30.4479 24.4256 30.2508 24.4711 30.0539L24.5452 29.7567C24.5471 29.7498 24.5496 29.743 24.5515 29.7361C24.6299 29.446 24.7211 29.163 24.8263 28.8883C24.8624 28.7943 24.8998 28.7011 24.9388 28.6089C26.029 26.0349 28.2741 24.204 30.8845 23.5709L31.2326 22.2723C31.4165 21.5857 31.992 21.1079 32.6543 21.0157Z" fill="black"/>
</svg>
