<svg width="24" height="24" viewBox="0 0 24 24" fill="none" xmlns="http://www.w3.org/2000/svg">
<path d="M10.0693 2.81984L3.13929 8.36983C2.35929 8.98983 1.85929 10.2999 2.02929 11.2799L3.35929 19.2398C3.59929 20.6598 4.95928 21.8098 6.39928 21.8098H17.5993C19.0293 21.8098 20.3993 20.6498 20.6393 19.2398L21.9693 11.2799C22.1293 10.2999 21.6293 8.98983 20.8593 8.36983L13.9293 2.82985C12.8593 1.96985 11.1293 1.96984 10.0693 2.81984Z" stroke="#0C1C2C" stroke-width="1.5" stroke-linecap="round" stroke-linejoin="round"/>
<path d="M11.999 15.4998C13.3797 15.4998 14.499 14.3805 14.499 12.9998C14.499 11.6191 13.3797 10.4998 11.999 10.4998C10.6183 10.4998 9.49902 11.6191 9.49902 12.9998C9.49902 14.3805 10.6183 15.4998 11.999 15.4998Z" stroke="#0C1C2C" stroke-width="1.5" stroke-linecap="round" stroke-linejoin="round"/>
</svg>
