<svg width="65" height="64" viewBox="0 0 65 64" fill="none" xmlns="http://www.w3.org/2000/svg">
<rect x="1.73464" y="1.06667" width="61.8667" height="61.8667" rx="30.9333" stroke="#0C1C2C" stroke-width="2.13333"/>
<rect x="1.73464" y="1.06667" width="61.8667" height="61.8667" rx="30.9333" stroke="#0C1C2C" stroke-width="2.13333"/>
<path d="M28.571 32.8928C28.1911 34.5155 27.322 35.7862 25.9637 36.7048C24.6055 37.6235 23.2165 37.8801 21.7968 37.4746C20.3841 37.0382 19.2829 36.0496 18.4931 34.509C17.6933 32.9489 17.475 31.3632 17.8379 29.752C18.2079 28.1098 19.072 26.8294 20.4303 25.9107C21.7885 24.9921 23.1825 24.7452 24.6121 25.1702C26.0318 25.5757 27.1416 26.5585 27.9413 28.1186C28.7311 29.6592 28.941 31.2506 28.571 32.8928ZM31.0699 47L31.1385 19.1014L34.2455 17L34.1769 44.8986L31.0699 47ZM22.6181 33.9251C23.2016 34.082 23.7819 33.9653 24.3592 33.5748C24.9364 33.1844 25.3068 32.6581 25.4704 31.9959C25.624 31.3143 25.5308 30.6419 25.1909 29.9789C24.851 29.3158 24.3893 28.9058 23.8059 28.7489C23.2124 28.5725 22.6271 28.6796 22.0498 29.07C21.4726 29.4604 21.1072 29.9965 20.9536 30.6781C20.79 31.3403 20.8782 32.0029 21.2181 32.6659C21.558 33.329 22.0247 33.7487 22.6181 33.9251ZM47.4924 34.2772C47.1125 35.8999 46.2434 37.1706 44.8851 38.0893C43.5269 39.0079 42.1379 39.2645 40.7183 38.8591C39.3055 38.4226 38.1993 37.4243 37.3995 35.8642C36.6098 34.3236 36.3964 32.7477 36.7594 31.1364C37.1293 29.4943 37.9934 28.2138 39.3517 27.2952C40.7099 26.3765 42.1039 26.1297 43.5335 26.5546C44.9532 26.9601 46.058 27.9332 46.8477 29.4738C47.6475 31.0339 47.8624 32.6351 47.4924 34.2772ZM41.5245 35.2803C42.108 35.4372 42.6883 35.3205 43.2656 34.93C43.8428 34.5396 44.2132 34.0133 44.3768 33.3511C44.5304 32.6695 44.4372 31.9971 44.0973 31.3341C43.7574 30.671 43.2957 30.261 42.7123 30.1041C42.1188 29.9277 41.5335 30.0347 40.9562 30.4252C40.379 30.8156 40.0136 31.3516 39.86 32.0333C39.6964 32.6955 39.7846 33.3581 40.1245 34.0211C40.4644 34.6842 40.9311 35.1039 41.5245 35.2803Z" fill="black"/>
</svg>
