<svg width="64" height="64" viewBox="0 0 64 64" fill="none" xmlns="http://www.w3.org/2000/svg">
<rect x="1.06667" y="1.06667" width="61.8667" height="61.8667" rx="30.9333" stroke="#0C1C2C" stroke-width="2.13333"/>
<rect x="1.065" y="1.065" width="61.87" height="61.87" rx="30.935" stroke="#0C1C2C" stroke-width="2.13"/>
<path d="M21.9412 28.442C22.4547 26.9886 23.2882 25.6219 24.4618 24.4552C28.6293 20.2883 35.384 20.2883 39.5516 24.4552L40.6918 25.6019H38.4047C37.2244 25.6019 36.2709 26.5553 36.2709 27.7353C36.2709 28.9154 37.2244 29.8688 38.4047 29.8688H45.8662C47.0465 29.8688 48 28.9154 48 27.7353V20.2683C48 19.0882 47.0465 18.1348 45.8662 18.1348C44.686 18.1348 43.7324 19.0882 43.7324 20.2683V22.615L42.5655 21.4417C36.731 15.608 27.2757 15.608 21.4411 21.4417C19.8141 23.0684 18.6406 24.9818 17.9204 27.0286C17.527 28.142 18.1138 29.3554 19.2207 29.7488C20.3276 30.1421 21.5478 29.5554 21.9412 28.4487V28.442ZM17.5337 34.2224C17.2003 34.3224 16.8802 34.5024 16.6201 34.7691C16.3534 35.0357 16.1734 35.3558 16.08 35.7024C16.06 35.7825 16.04 35.8691 16.0267 35.9558C16.0067 36.0691 16 36.1825 16 36.2958V43.7362C16 44.9163 16.9535 45.8697 18.1338 45.8697C19.314 45.8697 20.2676 44.9163 20.2676 43.7362V41.3961L21.4411 42.5628C27.2757 48.3898 36.731 48.3898 42.5589 42.5628C44.1859 40.9361 45.3661 39.0226 46.0863 36.9825C46.4797 35.8691 45.8929 34.6557 44.786 34.2624C43.6791 33.869 42.4588 34.4557 42.0654 35.5624C41.552 37.0159 40.7185 38.3826 39.5449 39.5493C35.3774 43.7162 28.6226 43.7162 24.4551 39.5493L24.4484 39.5427L23.3082 38.4026H25.602C26.7822 38.4026 27.7358 37.4492 27.7358 36.2691C27.7358 35.0891 26.7822 34.1357 25.602 34.1357H18.1605C18.0538 34.1357 17.9471 34.1424 17.8404 34.1557C17.7337 34.169 17.6337 34.189 17.5337 34.2224Z" fill="#0C1C2C"/>
</svg>
