<svg width="65" height="64" viewBox="0 0 65 64" fill="none" xmlns="http://www.w3.org/2000/svg">
<rect x="1.56667" y="1.06667" width="61.8667" height="61.8667" rx="30.9333" stroke="#0C1C2C" stroke-width="2.13333"/>
<rect x="1.56667" y="1.06667" width="61.8667" height="61.8667" rx="30.9333" stroke="#0C1C2C" stroke-width="2.13333"/>
<path fill-rule="evenodd" clip-rule="evenodd" d="M35.552 33.1266C35.3815 33.1404 34.5008 33.1975 32.5362 33.1975C30.9737 33.1975 29.8642 33.1466 29.475 33.1266C23.4364 32.8382 18.929 31.697 18.929 30.3306C18.929 28.9642 23.4364 27.8246 29.475 27.5315V31.99C29.8699 32.0208 31.0006 32.0933 32.5632 32.0933C34.4383 32.0933 35.3773 32.0085 35.5463 31.9915V27.5346C41.5722 27.8261 46.0695 28.9673 46.0695 30.3306C46.0695 31.6939 41.5736 32.8351 35.5463 33.125L35.552 33.1266ZM35.552 27.0735V23.0839H43.9615V17H21.0655V23.0839H29.4736V27.072C22.6394 27.4128 17.5 28.8825 17.5 30.6437C17.5 32.4048 22.6394 33.873 29.4736 34.2153V47H35.5506V34.2107C42.3691 33.8699 47.5 32.4017 47.5 30.6421C47.5 28.8825 42.3733 27.4143 35.5506 27.072L35.552 27.0735Z" fill="black"/>
</svg>
